<svg id="Capa_1" enable-background="new 0 0 512 512" height="512" viewBox="0 0 512 512" width="512" xmlns="http://www.w3.org/2000/svg"><g><g><path d="m504.5 130.56v295.6c0 43.27-35.07 78.34-78.34 78.34h-340.32c-43.27 0-78.34-35.07-78.34-78.34v-295.6l248.5-31.98z" fill="#90d3f1"/><path d="m504.5 85.84v44.72h-497v-44.72c0-43.27 35.07-78.34 78.34-78.34h340.32c43.27 0 78.34 35.07 78.34 78.34z" fill="#5c84d9"/><path d="m43.075 287.994c0-58.201 10.809-114.061 30.66-165.958l-66.235 8.524v295.6c0 43.27 35.07 78.34 78.34 78.34h10.717c-34.262-65.438-53.482-138.891-53.482-216.506z" fill="#59c2e7"/><path d="m136.69 7.5h-50.85c-43.27 0-78.34 35.07-78.34 78.34v44.72h63.073c15.895-44.1 38.284-85.443 66.117-123.06z" fill="#4677d4"/><path d="m85.837 433.5c-4.597 0-8.337-3.74-8.337-8.337v-220.326c0-4.597 3.74-8.337 8.337-8.337h340.326c4.597 0 8.337 3.74 8.337 8.337v220.326c0 4.597-3.74 8.337-8.337 8.337z" fill="#ff748f"/><circle cx="99.064" cy="69.03" fill="#ff748f" r="21.564"/><circle cx="177.798" cy="69.03" fill="#90d3f1" r="21.564"/><circle cx="256.533" cy="69.03" fill="#fff" r="21.564"/></g><g><path d="m442 425.163v-220.326c0-8.732-7.104-15.837-15.837-15.837h-340.326c-8.733 0-15.837 7.104-15.837 15.837v220.326c0 8.733 7.104 15.837 15.837 15.837h340.326c8.733 0 15.837-7.104 15.837-15.837zm-357 0v-220.326c0-.454.383-.837.837-.837h340.326c.454 0 .837.383.837.837v220.326c0 .454-.383.837-.837.837h-340.326c-.454 0-.837-.383-.837-.837z"/><path d="m426.16 0h-340.32c-47.332 0-85.84 38.508-85.84 85.84v340.32c0 47.332 38.508 85.84 85.84 85.84h71.817c4.142 0 7.5-3.358 7.5-7.5s-3.358-7.5-7.5-7.5h-71.817c-39.061 0-70.84-31.779-70.84-70.84v-288.1h347.687c4.142 0 7.5-3.358 7.5-7.5s-3.358-7.5-7.5-7.5h-347.687v-37.22c0-39.061 31.779-70.84 70.84-70.84h340.32c39.061 0 70.84 31.779 70.84 70.84v37.22h-104.313c-4.142 0-7.5 3.358-7.5 7.5s3.358 7.5 7.5 7.5h104.313v288.1c0 39.062-31.779 70.84-70.84 70.84h-238.503c-4.142 0-7.5 3.358-7.5 7.5s3.358 7.5 7.5 7.5h238.503c47.332 0 85.84-38.508 85.84-85.84v-340.32c0-47.332-38.508-85.84-85.84-85.84z"/><path d="m70 69.03c0 16.026 13.038 29.064 29.064 29.064s29.064-13.038 29.064-29.064-13.038-29.064-29.064-29.064-29.064 13.038-29.064 29.064zm43.128 0c0 7.755-6.309 14.064-14.064 14.064s-14.064-6.309-14.064-14.064 6.309-14.064 14.064-14.064 14.064 6.309 14.064 14.064z"/><path d="m148.734 69.03c0 16.026 13.038 29.064 29.064 29.064s29.064-13.038 29.064-29.064-13.038-29.064-29.064-29.064-29.064 13.038-29.064 29.064zm43.128 0c0 7.755-6.309 14.064-14.064 14.064s-14.064-6.309-14.064-14.064 6.309-14.064 14.064-14.064 14.064 6.309 14.064 14.064z"/><path d="m227.469 69.03c0 16.026 13.038 29.064 29.064 29.064s29.064-13.038 29.064-29.064-13.038-29.064-29.064-29.064-29.064 13.038-29.064 29.064zm43.128 0c0 7.755-6.309 14.064-14.064 14.064s-14.064-6.309-14.064-14.064 6.309-14.064 14.064-14.064 14.064 6.309 14.064 14.064z"/><path d="m169.947 270.718 6.591-6.591 6.591 6.591c2.929 2.929 7.678 2.929 10.606 0 2.929-2.929 2.929-7.678 0-10.606l-6.591-6.591 6.591-6.591c2.929-2.929 2.929-7.678 0-10.606-2.929-2.929-7.678-2.929-10.606 0l-6.591 6.591-6.591-6.591c-2.929-2.929-7.678-2.929-10.606 0-2.929 2.929-2.929 7.678 0 10.606l6.591 6.591-6.591 6.591c-2.929 2.929-2.929 7.678 0 10.606 2.929 2.929 7.677 2.929 10.606 0z"/><path d="m352.66 260.111-6.591-6.591 6.591-6.591c2.929-2.929 2.929-7.678 0-10.606-2.929-2.929-7.678-2.929-10.606 0l-6.591 6.591-6.591-6.591c-2.929-2.929-7.678-2.929-10.606 0-2.929 2.929-2.929 7.678 0 10.606l6.591 6.591-6.591 6.591c-2.929 2.929-2.929 7.678 0 10.606 2.929 2.929 7.678 2.929 10.606 0l6.591-6.591 6.591 6.591c2.929 2.929 7.678 2.929 10.606 0 2.929-2.928 2.929-7.677 0-10.606z"/><path d="m293.732 285.537c3.616 2.022 8.186.729 10.207-2.885 2.022-3.616.73-8.185-2.885-10.207-7.364-4.118-16.514-4.118-23.879 0-2.848 1.593-6.386 1.593-9.235 0-7.364-4.118-16.514-4.118-23.879 0-2.848 1.593-6.386 1.593-9.235 0-7.364-4.118-16.514-4.119-23.878 0-3.615 2.021-4.907 6.591-2.885 10.207 2.021 3.615 6.59 4.908 10.207 2.885 2.849-1.592 6.388-1.593 9.235 0 7.365 4.119 16.515 4.119 23.878 0 2.849-1.592 6.388-1.593 9.235 0 7.363 4.118 16.513 4.119 23.878 0 2.848-1.593 6.387-1.593 9.236 0z"/><path d="m146.347 336.419c4.142 0 7.5-3.358 7.5-7.5s-3.358-7.5-7.5-7.5h-22.965c-4.142 0-7.5 3.358-7.5 7.5v54.503c0 4.142 3.358 7.5 7.5 7.5h22.965c4.142 0 7.5-3.358 7.5-7.5s-3.358-7.5-7.5-7.5h-15.465v-12.251h13.772c4.142 0 7.5-3.358 7.5-7.5s-3.358-7.5-7.5-7.5h-13.772v-12.251h15.465z"/><path d="m208.501 342.713c0-12.018-10.14-21.795-22.604-21.795-14.298 0-14.777 0-14.635 0-4.142 0-7.5 3.358-7.5 7.5v55.005c0 4.142 3.358 7.5 7.5 7.5s7.5-3.358 7.5-7.5v-13.916l16.609 18.871c1.482 1.685 3.552 2.545 5.633 2.545 6.37 0 9.92-7.577 5.627-12.455l-13.344-15.162c8.845-2.96 15.214-11.07 15.214-20.593zm-22.604 6.795c-1.664 0-4.402.011-7.057.023-.033-6.792-.014-5.115-.037-13.613h7.094c4.122 0 7.604 3.112 7.604 6.795s-3.482 6.795-7.604 6.795z"/><path d="m264.421 342.713c0-12.018-10.14-21.795-22.604-21.795-14.298 0-14.776 0-14.634 0-4.142 0-7.5 3.358-7.5 7.5v55.005c0 4.142 3.358 7.5 7.5 7.5s7.5-3.358 7.5-7.5v-13.916l16.609 18.871c2.74 3.114 7.48 3.408 10.585.675 3.109-2.737 3.412-7.476.675-10.585l-13.344-15.162c8.844-2.96 15.213-11.07 15.213-20.593zm-22.604 6.795c-1.664 0-4.402.011-7.057.023-.033-6.792-.014-5.115-.037-13.613h7.094c4.122 0 7.604 3.112 7.604 6.795s-3.482 6.795-7.604 6.795z"/><path d="m396.119 342.713c0-12.018-10.14-21.795-22.604-21.795-14.298 0-14.777 0-14.635 0-4.142 0-7.5 3.358-7.5 7.5v55.005c0 4.142 3.358 7.5 7.5 7.5s7.5-3.358 7.5-7.5v-13.916l16.609 18.871c2.74 3.113 7.48 3.408 10.585.675 3.109-2.736 3.412-7.476.675-10.585l-13.344-15.162c8.844-2.96 15.214-11.07 15.214-20.593zm-22.604 6.795c-1.665 0-4.402.011-7.057.023-.033-6.79-.014-5.116-.037-13.613h7.094c4.122 0 7.604 3.112 7.604 6.795s-3.483 6.795-7.604 6.795z"/><path d="m307.845 320.917c-19.301 0-35.003 15.702-35.003 35.002s15.702 35.002 35.003 35.002c19.3 0 35.002-15.702 35.002-35.002s-15.701-35.002-35.002-35.002zm0 55.005c-11.03 0-20.003-8.973-20.003-20.002s8.973-20.002 20.003-20.002c11.029 0 20.002 8.973 20.002 20.002s-8.972 20.002-20.002 20.002z"/></g></g></svg>