<svg clip-rule="evenodd" fill-rule="evenodd" height="512" stroke-linejoin="round" stroke-miterlimit="2" viewBox="0 0 64 64" width="512" xmlns="http://www.w3.org/2000/svg"><path d="m61 12.3c0-2.761-2.239-5-5-5-10.308 0-37.692 0-48 0-2.761 0-5 2.239-5 5v30.073c0 2.761 2.239 5 5 5h48c2.761 0 5-2.239 5-5z" fill="#e4e8fd"/><path d="m26.758 40.653c.308 0 .598-.141.787-.383l2.375-3.032c.284-.362.284-.871 0-1.233l-5.551-7.087c-.668-.852-1.69-1.349-2.772-1.349s-2.104.497-2.771 1.349c0 0-7.926 10.118-7.926 10.118-.236.302-.279.711-.112 1.055.168.344.517.562.9.562z" fill="#61af84"/><path d="m27.862 33.378-3.466 4.425c-.637.814-.806 1.89-.466 2.85h2.828c.308 0 .598-.141.787-.383l2.375-3.032c.284-.362.284-.871 0-1.233z" fill="#4d9c71"/><circle cx="15.077" cy="19" fill="#f6cb44" r="4.227"/><path d="m25.971 39.036c-.236.302-.279.711-.112 1.055.168.344.517.562.899.562h25.554c.383 0 .732-.218.9-.562.167-.344.124-.753-.112-1.055l-10.416-13.296c-.758-.968-1.919-1.534-3.149-1.534-1.229 0-2.39.566-3.149 1.534 0 0-10.415 13.296-10.415 13.296z" fill="#61af84"/><path d="m54.28 46.373c0-.552-.448-1-1-1h-42.56c-.552 0-1 .448-1 1v2.72c0 1.326.527 2.598 1.464 3.536.938.937 2.21 1.464 3.536 1.464h34.56c1.326 0 2.598-.527 3.536-1.464.937-.938 1.464-2.21 1.464-3.536z" fill="#455a64"/><path d="m9.728 49.373h44.544c.005-.093.008-.186.008-.28v-2.72c0-.552-.448-1-1-1h-42.56c-.552 0-1 .448-1 1v2.72c0 .094.003.187.008.28z" fill="#3c4e56"/><path d="m61 38.653h-58v3.72c0 2.761 2.239 5 5 5h48c2.761 0 5-2.239 5-5z" fill="#2196f3"/><path d="m31.002 32.614c-.18.23-.251.526-.194.812s.236.533.491.676c3.546 1.996 7.401 1.81 12.5-3.289.291-.291.6-.553.924-.787.22-.16.366-.402.404-.671s-.035-.542-.203-.756l-2.24-2.859c-.758-.968-1.919-1.534-3.149-1.534-1.229 0-2.39.566-3.149 1.534 0 0-5.384 6.874-5.384 6.874z" fill="#eef5fe"/></svg>