<svg fill="none" height="512" viewBox="0 0 24 24" width="512" xmlns="http://www.w3.org/2000/svg"><path d="m7 7v-2h9c1.6569 0 3 1.34315 3 3v9h-2v-7c0-1.65685-1.3431-3-3-3z" fill="#c4e6ff"/><g clip-rule="evenodd" fill-rule="evenodd"><path d="m7 4c0-1.65685 1.34315-3 3-3h10c1.6569 0 3 1.34315 3 3v10c0 1.6569-1.3431 3-3 3h-3v-2h3c.5523 0 1-.4477 1-1v-10c0-.55228-.4477-1-1-1h-10c-.55228 0-1 .44772-1 1v3h-2z" fill="#024493"/><path d="m1 10c0-1.65685 1.34315-3 3-3h10c1.6569 0 3 1.34315 3 3v10c0 1.6569-1.3431 3-3 3h-10c-1.65685 0-3-1.3431-3-3zm3-1c-.55228 0-1 .44772-1 1v10c0 .5523.44772 1 1 1h10c.5523 0 1-.4477 1-1v-10c0-.55228-.4477-1-1-1z" fill="#1e93ff"/></g></svg>