<svg id="Layer_1" height="512" viewBox="0 0 24 24" width="512" xmlns="http://www.w3.org/2000/svg" data-name="Layer 1"><g id="Scissor_Cut" data-name="Scissor, Cut"><path d="m9.131 15.89a1 1 0 0 1 -.588-1.81l10.87-7.89a1 1 0 1 1 1.174 1.62l-10.87 7.89a.993.993 0 0 1 -.586.19z" fill="#353535"/><path d="m7 21a4 4 0 1 1 4-4 4 4 0 0 1 -4 4zm0-6a2 2 0 1 0 2 2 2 2 0 0 0 -2-2z" fill="#18b5c9"/><path d="m20 18a1 1 0 0 1 -.586-.19l-10.871-7.89a1 1 0 1 1 1.174-1.62l10.87 7.889a1 1 0 0 1 -.587 1.811z" fill="#353535"/><path d="m7 11a4 4 0 1 1 4-4 4 4 0 0 1 -4 4zm0-6a2 2 0 1 0 2 2 2 2 0 0 0 -2-2z" fill="#18b5c9"/></g></svg>