<svg id="Layer_1" enable-background="new 0 0 512 512" height="512" viewBox="0 0 512 512" width="512" xmlns="http://www.w3.org/2000/svg"><g><g><path d="m330.828 475.434c-13.255 0-24-10.745-24-24v-22.059l-24.971-24.971c-9.372-9.373-9.372-24.568 0-33.941 9.373-9.373 24.568-9.373 33.941 0l32 32c4.501 4.501 7.029 10.605 7.029 16.971v32c.001 13.254-10.744 24-23.999 24z" fill="#463c4b"/></g><g><path d="m394.828 347.434c0-13.255-10.745-24-24-24h-40c-13.255 0-24 10.745-24 24v16c0 13.255 10.745 24 24 24h40c13.255 0 24-10.745 24-24h-30.116c3.802-4.246 6.116-9.852 6.116-16z" fill="#463c4b"/><g><path d="m346.828 323.434h-16c-13.255 0-24 10.745-24 24s10.745 24 24 24 24-10.745 24-24h16c0-13.255-10.745-24-24-24z" fill="#555a6e"/></g><g><circle cx="330.828" cy="347.434" fill="#5ad7ff" r="8"/></g></g><g><path d="m234.828 475.434c-13.255 0-24-10.745-24-24v-22.059l-24.971-24.971c-9.372-9.373-9.372-24.568 0-33.941 9.373-9.373 24.568-9.373 33.941 0l32 32c4.501 4.501 7.029 10.605 7.029 16.971v32c.001 13.254-10.744 24-23.999 24z" fill="#463c4b"/></g><g><path d="m210.828 195.434h96v16h-96z" fill="#463c4b"/></g><g><path d="m338.828 387.434h-160c-8.837 0-16-7.163-16-16v-144c0-8.837 7.163-16 16-16h160c8.837 0 16 7.163 16 16v144c0 8.836-7.163 16-16 16z" fill="#a5c3dc"/></g><g><path d="m226.828 387.434h-48c-8.837 0-16-7.163-16-16v-144c0-8.837 7.163-16 16-16h48c8.837 0 16 7.163 16 16v144c0 8.836-7.163 16-16 16z" fill="#d7e6f0"/></g><g><path d="m218.828 363.434h-24c-17.645 0-32-14.355-32-32v-80h32v80h24z" fill="#463c4b"/></g><g><path d="m306.828 243.434h-16c-4.418 0-8 3.582-8 8v96c0 4.418 3.582 8 8 8h16c4.418 0 8-3.582 8-8v-96c0-4.419-3.581-8-8-8z" fill="#463c4b"/></g><g><circle cx="178.828" cy="251.434" fill="#555a6e" r="40"/></g><g><circle cx="166.828" cy="239.434" fill="#73788c" r="12"/></g><g><path d="m282.828 347.434c0-13.255-10.745-24-24-24h-40c-13.255 0-24 10.745-24 24v16c0 13.255 10.745 24 24 24h40c13.255 0 24-10.745 24-24h-30.116c3.801-4.246 6.116-9.852 6.116-16z" fill="#463c4b"/><g><path d="m234.828 323.434h-16c-13.255 0-24 10.745-24 24s10.745 24 24 24 24-10.745 24-24h16c0-13.255-10.745-24-24-24z" fill="#555a6e"/></g><g><circle cx="218.828" cy="347.434" fill="#ffcd05" r="8"/></g></g><g><path d="m298.828 323.434c-4.418 0-8 3.582-8 8v8c0 4.418 3.582 8 8 8 4.418 0 8-3.582 8-8v-8c0-4.419-3.581-8-8-8z" fill="#ffcd05"/></g><g><path d="m274.828 483.434h-80v-32c0-8.837 7.163-16 16-16h48c8.837 0 16 7.163 16 16z" fill="#a5c3dc"/></g><g><path d="m226.828 483.434h-32v-32c0-8.837 7.163-16 16-16 8.837 0 16 7.163 16 16z" fill="#d7e6f0"/></g><g><path d="m290.828 499.434h-88c-4.418 0-8-3.582-8-8v-8h80c8.837 0 16 7.163 16 16z" fill="#463c4b"/></g><g><circle cx="210.828" cy="451.434" fill="#a5c3dc" r="8"/></g><g><path d="m370.828 483.434h-80v-32c0-8.837 7.163-16 16-16h48c8.837 0 16 7.163 16 16z" fill="#a5c3dc"/></g><g><path d="m322.828 483.434h-32v-32c0-8.837 7.163-16 16-16 8.837 0 16 7.163 16 16z" fill="#d7e6f0"/></g><g><path d="m386.828 499.434h-88c-4.418 0-8-3.582-8-8v-8h80c8.837 0 16 7.163 16 16z" fill="#463c4b"/></g><g><circle cx="306.828" cy="451.434" fill="#a5c3dc" r="8"/></g><g><path d="m338.828 195.434h-160c-8.837 0-16-7.163-16-16v-96c0-8.837 7.163-16 16-16h160c8.837 0 16 7.163 16 16v96c0 8.836-7.163 16-16 16z" fill="#a5c3dc"/></g><g><path d="m226.828 195.434h-48c-8.837 0-16-7.163-16-16v-96c0-8.837 7.163-16 16-16h48c8.837 0 16 7.163 16 16v96c0 8.836-7.163 16-16 16z" fill="#d7e6f0"/></g><g><path d="m242.828 163.434v-64c0-8.837 7.163-16 16-16h16l6.828 6.828c.75.75 1.768 1.172 2.828 1.172h28.686c1.061 0 2.078-.421 2.828-1.172l6.828-6.828h16c8.837 0 16 7.163 16 16v64c0 8.837-7.163 16-16 16h-80c-8.834 0-15.998-7.164-15.998-16z" fill="#555a6e"/></g><g><path d="m318.828 163.434h-40c-2.209 0-4-1.791-4-4v-8c0-2.209 1.791-4 4-4h40c2.209 0 4 1.791 4 4v8c0 2.209-1.79 4-4 4z" fill="#ffcd05"/></g><g><circle cx="202.828" cy="131.434" fill="#a5c3dc" r="24"/></g><g fill="#ffcd05"><path d="m336.485 120.767 5.172-5.172c1.563-1.562 1.563-4.095 0-5.656-1.561-1.563-4.096-1.563-5.656 0l-5.172 5.172-5.172-5.172c-1.561-1.563-4.096-1.563-5.656 0-1.563 1.562-1.563 4.095 0 5.656l5.172 5.172-5.173 5.171c-1.563 1.562-1.563 4.095 0 5.656.78.781 1.805 1.172 2.828 1.172s2.048-.391 2.828-1.172l5.172-5.172 5.172 5.172c.78.781 1.805 1.172 2.828 1.172s2.048-.391 2.828-1.172c1.563-1.562 1.563-4.095 0-5.656z"/><path d="m277.657 109.938c-1.561-1.563-4.096-1.563-5.656 0l-5.172 5.172-5.172-5.172c-1.561-1.563-4.096-1.563-5.656 0-1.562 1.562-1.562 4.095 0 5.656l5.172 5.172-5.173 5.172c-1.562 1.562-1.562 4.095 0 5.656.78.781 1.805 1.172 2.828 1.172s2.048-.391 2.828-1.172l5.172-5.172 5.172 5.172c.78.781 1.805 1.172 2.828 1.172s2.048-.391 2.828-1.172c1.563-1.562 1.563-4.095 0-5.656l-5.172-5.172 5.172-5.172c1.563-1.561 1.563-4.094.001-5.656z"/></g><g><path d="m470.039 135.111-18.878-18.878 36.373-36.373c3.28-3.28-.716-8.578-4.771-6.325l-72.222 40.123c-2.323 1.291-2.765 4.446-.886 6.325l18.878 18.878-36.373 36.373c-3.28 3.28.716 8.578 4.771 6.325l72.222-40.123c2.323-1.291 2.765-4.446.886-6.325z" fill="#f58721"/></g><g><path d="m85.373 97.355-18.878 18.878-36.373-36.374c-3.28-3.28-8.578.716-6.325 4.771l40.123 72.222c1.291 2.323 4.446 2.765 6.325.886l18.878-18.878 36.373 36.373c3.28 3.28 8.578-.716 6.325-4.771l-40.123-72.221c-1.29-2.323-4.446-2.765-6.325-.886z" fill="#f58721"/></g><g><g><g><path d="m362.828 60.566h-16c-4.418 0-8-3.582-8-8s3.582-8 8-8h16c4.418 0 8 3.582 8 8s-3.582 8-8 8z" fill="#f58721"/></g></g><g><g><path d="m410.828 60.566h-16c-4.418 0-8-3.582-8-8s3.582-8 8-8h16c4.418 0 8 3.582 8 8s-3.582 8-8 8z" fill="#f58721"/></g></g><g><g><path d="m378.828 92.566c-4.418 0-8-3.582-8-8v-16c0-4.418 3.582-8 8-8s8 3.582 8 8v16c0 4.418-3.582 8-8 8z" fill="#f58721"/></g></g><g><g><path d="m378.828 44.566c-4.418 0-8-3.582-8-8v-16c0-4.418 3.582-8 8-8s8 3.582 8 8v16c0 4.418-3.582 8-8 8z" fill="#f58721"/></g></g></g><g><g><g><path d="m122.828 60.566h-16c-4.418 0-8-3.582-8-8s3.582-8 8-8h16c4.418 0 8 3.582 8 8s-3.582 8-8 8z" fill="#f58721"/></g></g><g><g><path d="m170.828 60.566h-16c-4.418 0-8-3.582-8-8s3.582-8 8-8h16c4.418 0 8 3.582 8 8s-3.582 8-8 8z" fill="#f58721"/></g></g><g><g><path d="m138.828 92.566c-4.418 0-8-3.582-8-8v-16c0-4.418 3.582-8 8-8s8 3.582 8 8v16c0 4.418-3.582 8-8 8z" fill="#f58721"/></g></g><g><g><path d="m138.828 44.566c-4.418 0-8-3.582-8-8v-16c0-4.418 3.582-8 8-8s8 3.582 8 8v16c0 4.418-3.582 8-8 8z" fill="#f58721"/></g></g></g></g></svg>