<svg id="Capa_1" enable-background="new 0 0 512 512" height="512" viewBox="0 0 512 512" width="512" xmlns="http://www.w3.org/2000/svg"><g><path d="m495.83 143.7v219.81c0 15.18-12.3 27.48-27.49 27.48h-419.01c-15.19 0-27.49-12.3-27.49-27.48v-219.81c0-15.18 12.3-27.48 27.49-27.48h419.01c15.19 0 27.49 12.3 27.49 27.48z" fill="#e4ebf2"/><path d="m495.83 143.7v219.81c0 15.18-12.3 27.48-27.49 27.48h-212.34v-274.77h212.34c15.19 0 27.49 12.3 27.49 27.48z" fill="#ccd6e7"/><g><path d="m256 375.99h-202.89c-12.75 0-23.11-10.36-23.11-23.1v-193.78c0-12.74 10.36-23.1 23.11-23.1h202.89l14.496-14.113-14.496-15.887h-202.89c-29.29 0-53.11 23.82-53.11 53.1v193.78c0 29.28 23.82 53.1 53.11 53.1h202.89l18.998-15z" fill="#9df"/></g><path d="m512 159.11v193.78c0 29.28-23.823 53.1-53.106 53.1h-62.827v-30h62.827c12.741 0 23.103-10.36 23.103-23.1v-193.78c0-12.74-10.361-23.1-23.103-23.1h-62.947l-.23-30h63.177c29.283 0 53.106 23.82 53.106 53.1z" fill="#80bfff"/><path d="m172.05 210.392c-8.285 0-15.002 6.716-15.002 15v2.516c-10.367-6.776-22.736-10.732-36.019-10.732-36.406 0-66.023 29.614-66.023 66.016s29.618 66.016 66.023 66.016c13.283 0 25.653-3.956 36.019-10.732v2.515c0 8.284 6.717 15 15.002 15s15.002-6.716 15.002-15v-115.599c-.001-8.285-6.717-15-15.002-15zm-51.021 108.815c-19.861 0-36.02-16.157-36.02-36.016s16.159-36.016 36.02-36.016 36.019 16.157 36.019 36.016-16.158 36.016-36.019 36.016z" fill="#a9f"/><path d="m256 315.21c-8.56-7.69-13.94-18.84-13.94-31.22s5.38-23.52 13.94-31.21l18.998-19.071-18.998-15.999c-4.95 2.1-9.62 4.75-13.94 7.86v-54.56c0-8.28-6.72-15-15-15-8.29 0-15.01 6.72-15.01 15v169.98c0 8.28 6.72 15 15.01 15 7.82 0 14.23-5.99 14.93-13.62 4.34 3.13 9.03 5.8 14.01 7.92l18.998-11.769z" fill="#a9f"/><path d="m356.06 283.99c0 39.7-32.3 72-72 72-9.95 0-19.43-2.03-28.06-5.7v-35.08c7.44 6.7 17.28 10.78 28.06 10.78 23.16 0 42-18.84 42-42 0-23.15-18.84-41.99-42-41.99-10.78 0-20.62 4.08-28.06 10.78v-35.07c8.62-3.68 18.1-5.71 28.06-5.71 39.7 0 72 32.29 72 71.99z" fill="#96f"/><path d="m512 159.11v193.78c0 29.28-23.82 53.1-53.11 53.1h-202.89v-30h202.89c12.75 0 23.11-10.36 23.11-23.1v-193.78c0-12.74-10.36-23.1-23.11-23.1h-202.89v-30h202.89c29.29 0 53.11 23.82 53.11 53.1z" fill="#80bfff"/><path d="m447.913 464.39c0 8.28-6.711 15-15.002 15-14.392 0-27.433-5.91-36.844-15.41-9.401 9.5-22.443 15.41-36.844 15.41-8.281 0-15.002-6.72-15.002-15 0-8.29 6.721-15 15.002-15 12.051 0 21.843-9.8 21.843-21.84v-343.1c0-12.04-9.791-21.84-21.843-21.84-8.281 0-15.002-6.71-15.002-15 0-8.28 6.721-15 15.002-15 14.402 0 27.443 5.91 36.844 15.41 9.411-9.5 22.453-15.41 36.844-15.41 8.291 0 15.002 6.72 15.002 15 0 8.29-6.711 15-15.002 15-12.041 0-21.843 9.8-21.843 21.84v343.1c0 12.04 9.801 21.84 21.843 21.84 8.291 0 15.002 6.71 15.002 15z" fill="#574d8c"/><path d="m447.913 464.39c0 8.28-6.711 15-15.002 15-14.392 0-27.433-5.91-36.844-15.41v-415.96c9.411-9.5 22.453-15.41 36.844-15.41 8.291 0 15.002 6.72 15.002 15 0 8.29-6.711 15-15.002 15-12.041 0-21.843 9.8-21.843 21.84v343.1c0 12.04 9.801 21.84 21.843 21.84 8.291 0 15.002 6.71 15.002 15z" fill="#3e3373"/></g></svg>