<?xml version="1.0" encoding="iso-8859-1"?>
<!-- Generator: Adobe Illustrator 19.0.0, SVG Export Plug-In . SVG Version: 6.00 Build 0)  -->
<svg version="1.1" id="Capa_1" xmlns="http://www.w3.org/2000/svg" xmlns:xlink="http://www.w3.org/1999/xlink" x="0px" y="0px"
	 viewBox="0 0 512 512" style="enable-background:new 0 0 512 512;" xml:space="preserve">
<path style="fill:#FFFFFF;" d="M478.33,324.409H33.67c-14.168,0-25.653-11.485-25.653-25.653v-85.511
	c0-14.168,11.485-25.653,25.653-25.653h444.66c14.168,0,25.653,11.485,25.653,25.653v85.511
	C503.983,312.924,492.498,324.409,478.33,324.409z"/>
<path style="fill:#ABFFDB;" d="M478.33,324.409H367.165V187.591H478.33c14.168,0,25.653,11.485,25.653,25.653v85.511
	C503.983,312.924,492.498,324.409,478.33,324.409z"/>
<path style="fill:#474D54;" d="M478.33,179.574H33.67c-18.566,0-33.67,15.105-33.67,33.67v85.511c0,18.566,15.105,33.67,33.67,33.67
	h444.66c18.566,0,33.67-15.105,33.67-33.67v-85.511C512,194.679,496.895,179.574,478.33,179.574z M495.967,298.756
	c0,9.725-7.912,17.637-17.637,17.637H33.67c-9.725,0-17.637-7.912-17.637-17.637v-85.511c0-9.725,7.912-17.637,17.637-17.637h444.66
	c9.725,0,17.637,7.912,17.637,17.637V298.756z"/>
<path style="fill:#48C397;" d="M455.809,264.899c3.098-5.092,4.884-11.066,4.884-17.45c0-18.566-15.105-33.67-33.67-33.67
	c-18.566,0-33.67,15.105-33.67,33.67s15.105,33.67,33.67,33.67c6.383,0,12.357-1.786,17.45-4.884l19.638,19.638
	c1.565,1.565,3.617,2.348,5.668,2.348s4.103-0.782,5.668-2.348c3.131-3.131,3.131-8.207,0-11.337L455.809,264.899z M409.386,247.449
	c0-9.725,7.912-17.637,17.637-17.637s17.637,7.912,17.637,17.637s-7.912,17.637-17.637,17.637S409.386,257.174,409.386,247.449z"/>
<path style="fill:#FFC850;" d="M42.221,213.779c-4.427,0-8.017,3.589-8.017,8.017v68.409c0,4.427,3.589,8.017,8.017,8.017
	s8.017-3.589,8.017-8.017v-68.409C50.238,217.368,46.649,213.779,42.221,213.779z"/>
<g>
</g>
<g>
</g>
<g>
</g>
<g>
</g>
<g>
</g>
<g>
</g>
<g>
</g>
<g>
</g>
<g>
</g>
<g>
</g>
<g>
</g>
<g>
</g>
<g>
</g>
<g>
</g>
<g>
</g>
</svg>
