<svg viewBox="0 -56 512 512" xmlns="http://www.w3.org/2000/svg"><path d="m512 31.445312v336.476563c0 17.359375-14.078125 31.445313-31.425781 31.445313h-449.148438c-17.347656 0-31.425781-14.085938-31.425781-31.445313v-336.476563c0-17.359374 14.078125-31.445312 31.425781-31.445312h449.144531c17.351563 0 31.429688 14.085938 31.429688 31.445312zm0 0" fill="#e4eaf7"/><path d="m41.734375 26.765625c0 4.332031-3.511719 7.84375-7.84375 7.84375s-7.84375-3.511719-7.84375-7.84375 3.511719-7.84375 7.84375-7.84375 7.84375 3.511719 7.84375 7.84375zm0 0" fill="#ff6469"/><path d="m68.859375 26.765625c0 4.332031-3.511719 7.84375-7.84375 7.84375s-7.84375-3.511719-7.84375-7.84375 3.511719-7.84375 7.84375-7.84375 7.84375 3.511719 7.84375 7.84375zm0 0" fill="#ffb96a"/><path d="m511.996094 50.738281h-214.847656c-8.0625 0-15.703126-3.601562-20.832032-9.824219l-25.632812-31.085937c-5.128906-6.222656-12.769532-9.82421875-20.828125-9.82421875h-67.902344c-8.003906 0-15.59375 3.55078175-20.722656 9.69921875l-26.164063 31.335937c-5.132812 6.148438-12.722656 9.699219-20.726562 9.699219h-94.33593775v64.183594h511.99218775zm0 0" fill="#bec8dc"/><path d="m95.988281 26.765625c0 4.332031-3.511719 7.84375-7.84375 7.84375s-7.84375-3.511719-7.84375-7.84375 3.511719-7.84375 7.84375-7.84375 7.84375 3.511719 7.84375 7.84375zm0 0" fill="#a7d16c"/><path d="m459.414062 83.304688c0 4.332031-3.511718 7.84375-7.84375 7.84375-4.332031 0-7.84375-3.511719-7.84375-7.84375 0-4.332032 3.511719-7.84375 7.84375-7.84375 4.332032 0 7.84375 3.511718 7.84375 7.84375zm0 0" fill="#54a1ff"/><path d="m490.789062 83.304688c0 4.332031-3.511718 7.84375-7.84375 7.84375-4.332031 0-7.84375-3.511719-7.84375-7.84375 0-4.332032 3.511719-7.84375 7.84375-7.84375 4.332032 0 7.84375 3.511718 7.84375 7.84375zm0 0" fill="#54a1ff"/><path d="m356.425781 91.152344h-256.664062c-4.332031 0-7.84375-3.515625-7.84375-7.847656 0-4.335938 3.511719-7.847657 7.84375-7.847657h256.664062c4.332031 0 7.84375 3.511719 7.84375 7.847657 0 4.332031-3.511719 7.847656-7.84375 7.847656zm0 0" fill="#fff"/><g fill="#5b5c6c"><path d="m225.652344 40.449219h-59.304688c-4.332031 0-7.84375-3.515625-7.84375-7.847657 0-4.335937 3.507813-7.847656 7.84375-7.847656h59.304688c4.332031 0 7.84375 3.511719 7.84375 7.847656 0 4.332032-3.511719 7.847657-7.84375 7.847657zm0 0"/><path d="m36.007812 96.964844c-1.90625 0-3.816406-.6875-5.328124-2.085938l-6.035157-5.589844c-1.566406-1.449218-2.472656-3.472656-2.515625-5.605468-.039062-2.136719.789063-4.195313 2.296875-5.703125l6.035157-6.039063c3.0625-3.066406 8.03125-3.0625 11.09375 0 3.0625 3.066406 3.0625 8.035156 0 11.097656l-.269532.269532.050782.046875c3.179687 2.945312 3.371093 7.910156.429687 11.089843-1.546875 1.671876-3.648437 2.519532-5.757813 2.519532zm0 0"/><path d="m60.960938 96.964844c-2.113282 0-4.214844-.84375-5.761719-2.515625-2.941407-3.183594-2.75-8.148438.429687-11.09375l.050782-.042969-.269532-.273438c-3.0625-3.0625-3.0625-8.03125 0-11.097656 3.0625-3.0625 8.03125-3.0625 11.09375 0l6.035156 6.039063c1.507813 1.507812 2.335938 3.570312 2.296876 5.703125-.042969 2.132812-.949219 4.160156-2.515626 5.605468l-6.035156 5.589844c-1.511718 1.394532-3.421875 2.085938-5.324218 2.085938zm0 0"/></g><path d="m465.488281 397.984375c-.082031-13.167969-1.382812-26.03125-3.789062-38.511719-16.054688-83.367187-81.453125-149.136718-164.578125-165.6875-12.84375-2.5625-26.109375-3.945312-39.691406-4.03125-.480469-.011718-.949219-.011718-1.429688-.011718s-.949219 0-1.429688.011718c-13.554687.085938-26.8125 1.46875-39.644531 4.019532-83.148437 16.535156-148.582031 82.332031-164.640625 165.722656-2.390625 12.46875-3.691406 25.332031-3.773437 38.488281-.015625.457031-.015625.925781-.015625 1.382813h419.007812c0-.457032 0-.925782-.015625-1.382813zm0 0" fill="#d2dcf0"/><path d="m438.152344 398.164062c-.074219-11.445312-1.203125-22.632812-3.292969-33.484374-13.960937-72.488282-70.824219-129.675782-143.101563-144.066407-11.167968-2.226562-22.707031-3.429687-34.515624-3.503906-.417969-.011719-.824219-.011719-1.242188-.011719s-.824219 0-1.242188.011719c-11.789062.070313-23.3125 1.277344-34.472656 3.492187-72.300781 14.378907-129.191406 71.589844-143.15625 144.097657-2.078125 10.839843-3.210937 22.027343-3.28125 33.464843-.011718.398438-.011718.808594-.011718 1.203126h364.328124c0-.398438 0-.804688-.011718-1.203126zm0 0" fill="#71d8fd"/><path d="m438.152344 398.164062c-.074219-11.445312-1.203125-22.632812-3.292969-33.484374-4.832031-7.242188-11.210937-14.160157-19.035156-20.625-16.960938-13.992188-40.378907-25.554688-67.9375-33.5625-12.101563-42.484376-32.210938-74.054688-56.128907-89.878907-11.167968-2.230469-22.707031-3.433593-34.515624-3.507812-.417969-.007813-.824219-.007813-1.242188-.007813s-.824219 0-1.242188.007813c-11.789062.074219-23.3125 1.277343-34.472656 3.496093-23.9375 15.8125-44.0625 47.394532-56.171875 89.890626-27.558593 8.015624-50.972656 19.570312-67.925781 33.570312-7.84375 6.464844-14.214844 13.394531-19.054688 20.636719-2.082031 10.839843-3.210937 22.027343-3.285156 33.464843-.011718.398438-.011718.804688-.011718 1.203126h364.328124c0-.398438 0-.804688-.011718-1.203126zm-285.804688-6.644531h-69.90625c2.425782-12.347656 10.511719-24.445312 23.722656-35.347656 13.523438-11.15625 31.832032-20.667969 53.472657-27.847656-4.371094 20.089843-6.820313 41.273437-7.289063 63.195312zm95.808594 0h-80.121094c.554688-23.671875 3.585938-47.027343 8.890625-68.257812 22.046875-5.621094 46.433594-8.832031 71.230469-9.390625zm0-93.355469c-22.832031.503907-45.378906 3.152344-66.265625 7.789063 7.3125-22.457031 17.164063-41.503906 28.835937-55.578125 11.484376-13.855469 24.292969-22.269531 37.429688-24.6875zm15.6875-72.476562c13.117188 2.40625 25.9375 10.820312 37.429688 24.6875 11.671874 14.074219 21.523437 33.117188 28.835937 55.574219-20.886719-4.632813-43.433594-7.28125-66.265625-7.785157zm0 165.832031v-77.648437c24.796875.558594 49.1875 3.769531 71.230469 9.390625 5.304687 21.230469 8.335937 44.585937 8.890625 68.257812zm95.808594 0c-.46875-21.933593-2.917969-43.101562-7.289063-63.195312 21.640625 7.167969 39.960938 16.679687 53.476563 27.835937 13.207031 10.894532 21.292968 22.992188 23.707031 35.359375zm0 0" fill="#54a1ff"/></svg>