<svg xmlns="http://www.w3.org/2000/svg" width="19.989" height="12.3" viewBox="0 0 19.989 12.3">
  <g id="markdown" transform="translate(-1596 -108)">
    <rect id="Rectangle_1" data-name="Rectangle 1" width="16" height="8" transform="translate(1598 110)" fill="#fff"/>
    <path id="markdown-2" data-name="markdown" d="M20.553,18.15H3.447A1.443,1.443,0,0,1,2,16.709V7.291A1.443,1.443,0,0,1,3.447,5.85h17.1a1.443,1.443,0,0,1,1.442,1.441v9.418a1.441,1.441,0,0,1-1.441,1.441ZM6.811,15.268V11.52l1.922,2.4,1.922-2.4v3.748h1.922V8.732H10.655l-1.922,2.4-1.922-2.4H4.889v6.535H6.811ZM19.688,12H17.766V8.732H15.843V12H13.921L16.8,15.364Z" transform="translate(1593.995 102.15)"/>
  </g>
</svg>
