<svg xmlns="http://www.w3.org/2000/svg" width="43" height="56" viewBox="0 0 43 56">
  <g id="markdown" transform="translate(-1552 -151)">
    <rect id="Rectangle_2" data-name="Rectangle 2" width="43" height="56" transform="translate(1552 151)" fill="rgba(255,255,255,0)"/>
    <g id="markdown-2" data-name="markdown" transform="translate(-44 57.69)">
      <rect id="Rectangle_1" data-name="Rectangle 1" width="34.419" height="17.209" transform="translate(1600.302 112.302)" fill="#fff"/>
      <path id="markdown-3" data-name="markdown" d="M41.905,32.31H5.107A3.1,3.1,0,0,1,2,29.21V8.95a3.1,3.1,0,0,1,3.1-3.1H41.9A3.1,3.1,0,0,1,45,8.95V29.21a3.1,3.1,0,0,1-3.1,3.1Zm-29.562-6.2V18.047l4.135,5.167,4.135-5.167V26.11h4.135V12.05H20.613l-4.135,5.169L12.344,12.05H8.209V26.108h4.135Zm27.7-7.03H35.91V12.05H31.773v7.03H27.638l6.2,7.237Z" transform="translate(1593.995 102.15)"/>
    </g>
  </g>
</svg>
