<svg id="Layer_1" enable-background="new 0 0 512 512" height="512" viewBox="0 0 512 512" width="512" xmlns="http://www.w3.org/2000/svg"><g clip-rule="evenodd" fill-rule="evenodd"><circle cx="256" cy="256" fill="#80eead" r="256"/><path d="m511.885 263.451c-3.945 137.938-116.993 248.549-255.885 248.549-8.127 0-16.162-.396-24.096-1.137l-114.856-114.857c-11.54-9.27-11.946-25.747 2.165-41.287 16.411-18.073 48.364-31.28 72.747-30.075 3.119.154 6.078.546 8.841 1.171v-160.728c0-5.814 4.495-10.579 10.2-11.007l159.734-25.436c3.934-.624 7.693.965 10.1 3.759z" fill="#23c6a0"/><path d="m222.88 347.584c0 10.656-3.632 17.903-10.765 25.758-16.408 18.07-48.352 31.281-72.748 30.074-30.491-1.508-40.68-26.093-20.154-48.697 16.411-18.073 48.364-31.28 72.747-30.075 3.119.154 6.078.546 8.841 1.171v-160.728c0-5.814 4.495-10.579 10.2-11.007l159.734-25.436c6.627-1.052 12.755 4.175 12.764 10.866v183.08c0 15.671-31.356 36.144-44.565 41.21-13.898 5.687-27.75 8.19-38.948 7.637-30.492-1.508-40.68-26.093-20.154-48.697 16.453-18.121 48.303-31.283 72.747-30.075 3.119.154 6.078.545 8.842 1.171v-91.114l-138.541 22.061zm138.542-167.145v-28.03l-138.542 22.062v28.03z" fill="#fff"/></g></svg>