<?xml version="1.0" encoding="iso-8859-1"?>
<!-- Generator: Adobe Illustrator 19.0.0, SVG Export Plug-In . SVG Version: 6.00 Build 0)  -->
<svg version="1.1" id="Capa_1" xmlns="http://www.w3.org/2000/svg" xmlns:xlink="http://www.w3.org/1999/xlink" x="0px" y="0px"
	 viewBox="0 0 512 512" style="enable-background:new 0 0 512 512;" xml:space="preserve">
<g style="opacity:0.08;">
	<path d="M129.051,512c-74.5,0-124.56-50.059-124.56-124.56V133.542c0-74.5,50.059-124.56,124.56-124.56h253.898
		c74.5,0,124.56,50.059,124.56,124.56V387.44c0,74.5-50.059,124.56-124.56,124.56H129.051z"/>
</g>
<linearGradient id="SVGID_1_" gradientUnits="userSpaceOnUse" x1="-15.0449" y1="581.5254" x2="-15.0449" y2="637.5254" gradientTransform="matrix(8.9825 0 0 -8.9825 391.1404 5726.5439)">
	<stop  offset="0" style="stop-color:#C4C4C6"/>
	<stop  offset="1" style="stop-color:#F0F0F3"/>
</linearGradient>
<path style="fill:url(#SVGID_1_);" d="M129.051,503.018c-74.5,0-124.56-50.059-124.56-124.56V124.56C4.491,50.059,54.55,0,129.051,0
	h253.898c74.5,0,124.56,50.059,124.56,124.56v253.898c0,74.5-50.059,124.56-124.56,124.56H129.051z"/>
<g style="opacity:0.16;">
	
		<linearGradient id="SVGID_2_" gradientUnits="userSpaceOnUse" x1="-15.0449" y1="581.5254" x2="-15.0449" y2="637.5254" gradientTransform="matrix(8.9825 0 0 -8.9825 391.1404 5726.5439)">
		<stop  offset="0" style="stop-color:#000000"/>
		<stop  offset="0.06" style="stop-color:#000000;stop-opacity:0"/>
	</linearGradient>
	<path style="fill:url(#SVGID_2_);" d="M382.949,0H129.051C54.55,0,4.491,50.059,4.491,124.56v253.898
		c0,74.5,50.059,124.56,124.56,124.56h253.898c74.5,0,124.56-50.059,124.56-124.56V124.56C507.509,50.059,457.45,0,382.949,0z
		 M489.544,378.458c0,64.755-41.84,106.595-106.595,106.595H129.051c-64.755,0-106.595-41.84-106.595-106.595V124.56
		c0-64.755,41.84-106.595,106.595-106.595h253.898c64.755,0,106.595,41.84,106.595,106.595V378.458z"/>
</g>
<linearGradient id="SVGID_3_" gradientUnits="userSpaceOnUse" x1="-15.0449" y1="586.5254" x2="-15.0449" y2="632.5254" gradientTransform="matrix(8.9825 0 0 -8.9825 391.1404 5726.5439)">
	<stop  offset="0" style="stop-color:#414142"/>
	<stop  offset="1" style="stop-color:#282829"/>
</linearGradient>
<circle style="fill:url(#SVGID_3_);" cx="256" cy="251.509" r="206.596"/>
<linearGradient id="SVGID_4_" gradientUnits="userSpaceOnUse" x1="-26.0449" y1="609.5254" x2="-4.0449" y2="609.5254" gradientTransform="matrix(8.9825 0 0 -8.9825 391.1404 5726.5439)">
	<stop  offset="0" style="stop-color:#CCCCCE"/>
	<stop  offset="1" style="stop-color:#E8E8EA"/>
</linearGradient>
<path style="opacity:0.24;fill:url(#SVGID_4_);enable-background:new    ;" d="M354.807,254.204v-5.389l-18.315-4.276
	c-0.207-2.407-0.539-4.779-0.952-7.123l16.6-8.875l-1.392-5.21l-18.827,0.611c-0.817-2.264-1.734-4.473-2.74-6.629l13.743-12.872
	l-2.695-4.671l-17.992,5.452c-1.383-1.967-2.829-3.889-4.374-5.722l9.917-15.953l-3.809-3.809l-15.953,9.917
	c-1.832-1.545-3.755-2.991-5.722-4.374l5.452-17.992l-4.671-2.695l-12.872,13.743c-2.165-1.015-4.374-1.922-6.629-2.74l0.611-18.827
	l-5.21-1.392l-8.875,16.6c-2.344-0.413-4.716-0.746-7.123-0.952l-4.285-18.324h-5.389l-4.276,18.315
	c-2.407,0.207-4.779,0.539-7.123,0.952l-8.875-16.6l-5.21,1.392l0.611,18.827c-2.264,0.817-4.473,1.734-6.629,2.74l-12.872-13.743
	l-4.671,2.695l5.452,17.992c-1.967,1.383-3.889,2.829-5.722,4.374l-15.953-9.917l-3.809,3.809l9.917,15.953
	c-1.545,1.832-2.991,3.755-4.374,5.722l-17.992-5.452l-2.695,4.671l13.743,12.872c-1.015,2.165-1.922,4.374-2.74,6.629
	l-18.827-0.611l-1.392,5.21l16.6,8.875c-0.413,2.344-0.746,4.716-0.952,7.123l-18.324,4.285v5.389l18.315,4.276
	c0.207,2.407,0.539,4.779,0.952,7.123l-16.6,8.875l1.392,5.21l18.827-0.611c0.817,2.264,1.734,4.473,2.74,6.629l-13.743,12.872
	l2.695,4.671l17.992-5.452c1.383,1.967,2.829,3.889,4.374,5.722l-9.917,15.953l3.809,3.809l15.953-9.917
	c1.832,1.545,3.755,2.991,5.722,4.374l-5.452,17.992l4.671,2.695l12.872-13.743c2.165,1.015,4.374,1.922,6.629,2.74l-0.611,18.827
	l5.21,1.392l8.875-16.6c2.344,0.413,4.716,0.746,7.123,0.952l4.285,18.324h5.389l4.276-18.315c2.407-0.207,4.779-0.539,7.123-0.952
	l8.875,16.6l5.21-1.392l-0.611-18.827c2.264-0.817,4.473-1.734,6.629-2.74l12.872,13.743l4.671-2.695l-5.452-17.992
	c1.967-1.383,3.889-2.829,5.722-4.374l15.953,9.917l3.809-3.809l-9.917-15.953c1.545-1.832,2.991-3.755,4.374-5.722l17.992,5.452
	l2.695-4.671l-13.743-12.872c1.015-2.165,1.922-4.374,2.74-6.629l18.827,0.611l1.392-5.21l-16.6-8.875
	c0.413-2.344,0.746-4.716,0.952-7.123L354.807,254.204z M309.895,251.509c0,29.768-24.127,53.895-53.895,53.895
	s-53.895-24.127-53.895-53.895s24.127-53.895,53.895-53.895S309.895,221.741,309.895,251.509z"/>
<linearGradient id="SVGID_5_" gradientUnits="userSpaceOnUse" x1="-10.0699" y1="599.291" x2="-27.5699" y2="635.291" gradientTransform="matrix(8.9825 0 0 -8.9825 391.1404 5726.5439)">
	<stop  offset="0" style="stop-color:#CCCCCE"/>
	<stop  offset="1" style="stop-color:#E8E8EA"/>
</linearGradient>
<path style="fill:url(#SVGID_5_);" d="M417.684,254.204v-5.389l-18.315-4.276c-0.386-8.003-1.311-15.863-2.964-23.471l16.465-8.803
	l-1.392-5.21l-18.657,0.611c-2.434-7.581-5.542-14.857-9.144-21.845l13.689-12.827l-2.695-4.671l-17.974,5.452
	c-4.285-6.638-9.135-12.854-14.426-18.675l9.953-16.016l-3.809-3.809l-16.016,9.953c-5.83-5.291-12.045-10.141-18.675-14.426
	l5.452-17.974l-4.671-2.695l-12.827,13.689c-6.979-3.602-14.255-6.71-21.845-9.144l0.611-18.657l-5.21-1.392l-8.803,16.465
	c-7.608-1.653-15.468-2.578-23.471-2.964l-4.267-18.306h-5.389l-4.276,18.315c-8.003,0.386-15.863,1.311-23.471,2.964l-8.803-16.465
	l-5.21,1.392l0.611,18.657c-7.581,2.434-14.857,5.533-21.845,9.144l-12.827-13.689l-4.671,2.695l5.452,17.974
	c-6.638,4.285-12.854,9.135-18.675,14.426l-16.016-9.953l-3.809,3.809l9.953,16.016c-5.291,5.83-10.141,12.045-14.426,18.675
	l-17.974-5.452l-2.695,4.671l13.689,12.827c-3.602,6.979-6.71,14.255-9.144,21.845l-18.657-0.611l-1.392,5.21l16.465,8.803
	c-1.653,7.608-2.578,15.468-2.964,23.471l-18.306,4.267v5.389l18.315,4.276c0.386,8.003,1.311,15.863,2.964,23.471l-16.465,8.803
	l1.392,5.21l18.657-0.611c2.434,7.581,5.542,14.857,9.144,21.845l-13.689,12.827l2.695,4.671l17.974-5.452
	c4.285,6.638,9.135,12.854,14.426,18.674l-9.953,16.016l3.809,3.809l16.016-9.953c5.83,5.291,12.045,10.141,18.675,14.426
	l-5.452,17.974l4.671,2.695l12.827-13.689c6.979,3.602,14.255,6.71,21.845,9.144l-0.611,18.657l5.21,1.392l8.803-16.465
	c7.608,1.653,15.468,2.578,23.471,2.964l4.267,18.306h5.389l4.276-18.315c8.003-0.386,15.863-1.311,23.471-2.964l8.803,16.465
	l5.21-1.392l-0.611-18.657c7.581-2.434,14.857-5.533,21.845-9.144l12.827,13.689l4.671-2.695l-5.452-17.974
	c6.638-4.285,12.854-9.135,18.675-14.426l16.016,9.953l3.809-3.809l-9.953-16.016c5.291-5.83,10.141-12.045,14.426-18.674
	l17.974,5.452l2.695-4.671l-13.689-12.827c3.602-6.979,6.71-14.255,9.144-21.845l18.657,0.611l1.392-5.21l-16.465-8.803
	c1.653-7.608,2.578-15.468,2.964-23.471L417.684,254.204z M368.802,221.525c2.228,8.372-4.482,16.51-13.141,16.51h-81.803
	c-3.575-4.725-8.938-7.941-15.099-8.704l-40.915-70.863c-4.482-7.77-0.252-17.57,8.417-19.86c9.494-2.524,19.465-3.871,29.741-3.871
	C310.021,134.737,355.535,171.619,368.802,221.525z M264.982,251.509c0,4.958-4.024,8.982-8.982,8.982s-8.982-4.024-8.982-8.982
	c0-4.958,4.024-8.982,8.982-8.982S264.982,246.55,264.982,251.509z M139.228,251.509c0-32.022,13.016-61,33.972-82.091
	c6.306-6.351,16.914-5.075,21.387,2.668l40.762,70.611c-1.159,2.704-1.805,5.686-1.805,8.812s0.647,6.108,1.814,8.812
	l-40.762,70.602c-4.473,7.752-15.073,9.018-21.387,2.668C152.244,312.509,139.228,283.531,139.228,251.509z M256,368.281
	c-10.276,0-20.246-1.347-29.741-3.871c-8.668-2.3-12.908-12.099-8.417-19.86l40.915-70.863c6.162-0.763,11.525-3.979,15.1-8.704
	h81.803c8.668,0,15.369,8.138,13.141,16.51C355.535,331.39,310.021,368.281,256,368.281z"/>
<g style="opacity:0.16;">
	<path d="M382.949,0H129.051C54.55,0,4.491,50.059,4.491,124.56v253.898c0,74.5,50.059,124.56,124.56,124.56h253.898
		c74.5,0,124.56-50.059,124.56-124.56V124.56C507.509,50.059,457.45,0,382.949,0z M498.526,378.458
		c0,69.129-46.448,115.577-115.577,115.577H129.051c-69.129,0-115.577-46.448-115.577-115.577V124.56
		c0-69.129,46.448-115.577,115.577-115.577h253.898c69.129,0,115.577,46.448,115.577,115.577V378.458z"/>
</g>
<g>
</g>
<g>
</g>
<g>
</g>
<g>
</g>
<g>
</g>
<g>
</g>
<g>
</g>
<g>
</g>
<g>
</g>
<g>
</g>
<g>
</g>
<g>
</g>
<g>
</g>
<g>
</g>
<g>
</g>
</svg>
