<svg id="Layer_1" height="512" viewBox="0 0 90 90" width="512" xmlns="http://www.w3.org/2000/svg"><path d="m17.193 7.107h35.139l20.59 20.528v55.24h-55.729z" fill="#d2dbff"/><g fill="#92a4da"><path d="m52.332 27.635v-20.528l20.59 20.528z"/><path d="m47.775 42.061c-1.994-.66-4.322-.582-6.35.584-2.025 1.162-3.619 3.375-4.332 6.475l3.682.848c.537-2.316 1.525-3.463 2.541-4.047 1.016-.582 2.184-.641 3.262-.281s1.984 1.141 2.406 2.053c.422.916.504 1.984-.328 3.479-.996 1.777-2.109 2.703-3.281 4.053-1.168 1.35-2.234 3.287-2.234 6.031h3.775c0-1.941.422-2.52 1.318-3.551.891-1.033 2.41-2.346 3.719-4.689 1.328-2.379 1.379-4.922.463-6.9-.912-1.981-2.65-3.393-4.641-4.055z"/><path d="m43.141 63.094h3.775v3.971h-3.775z"/><path d="m45.066 36.607c9.766 0 17.641 7.881 17.641 17.646 0 9.771-7.875 17.646-17.641 17.646-9.77 0-17.645-7.875-17.645-17.646.001-9.765 7.876-17.646 17.645-17.646zm0-3.781c-11.811 0-21.42 9.621-21.42 21.428 0 11.813 9.609 21.422 21.42 21.422 11.809 0 21.422-9.609 21.422-21.422 0-11.807-9.613-21.428-21.422-21.428z"/></g></svg>